<svg xmlns="http://www.w3.org/2000/svg" width="256" height="256" viewBox="0 0 256 256"><path d="M132.4 151.3c-.3 0-.4.2-.4.6h-.1a.5.5 0 0 0-.5.5c0 .4.2.6.5.6s.4-.2.4-.6h.1c.4 0 .5-.2.5-.5s-.1-.6-.5-.6zm1.5-.8a2.4 2.4 0 0 0-.9.8h.3a2 2 0 0 0 1.1-.3 2.4 2.4 0 0 0 .9-.8h-.3a2 2 0 0 0-1.1.3zm3.1-2.6c-.3 0-.5.2-.5.6h-.1c-.3 0-.4.1-.4.5h-.1c-.4 0-.5.2-.5.6s.1.6.5.6.4-.2.4-.6h.1c.3 0 .5-.2.5-.6h.1a.5.5 0 0 0 .5-.5c0-.4-.2-.6-.5-.6zm23.4-5.9l-1.3 1.4a1.7 1.7 0 0 0 .8 1 2.2 2.2 0 0 0 1.2.2 2 2 0 0 0 1.4-.5 4 4 0 0 0 1-1.2 7.1 7.1 0 0 0 .8-1.5c.2-.5.4-1.2.5-1.2h-3.4c-.2 0-.6 1.1-1 1.8z"/><path d="M127.8 0a128 128 0 1 0 0 256c70.8 0 128.2-57.3 128.2-128S198.6 0 127.8 0zm96.1 75.9a3.7 3.7 0 0 1-1.5.4h-3.8l-5.2 1.2a18.6 18.6 0 0 0-3.7 1.6 13.6 13.6 0 0 0-2.5 2.2 12.6 12.6 0 0 0-1.8 3 40.4 40.4 0 0 0-1.5 3.9l-1.6 5.1A36.2 36.2 0 0 1 201 97l-1.2 3.2c-.5 1-.9 2-1.5 3.1s-1.1 2.2-1.7 3.3-1.8 2.8-2.7 4.1l-3 3.7-3.1 3.6c-1.1 1.2-2.1 2.4-3.2 3.8a11.6 11.6 0 0 0-1.4 2.7l-.9 2.6a10.2 10.2 0 0 1-1.4 2.2 5.2 5.2 0 0 1-2.5 1.6l-1.4.6-2 .6-2.1.7-1.3.4a2.8 2.8 0 0 1 .1 2 1.8 1.8 0 0 1-.8.9 3.4 3.4 0 0 1-1.2.6 1.5 1.5 0 0 0-.9 1l-2.3 6.8a2.7 2.7 0 0 1-1.1 1.5 5.1 5.1 0 0 1-1.8.9 12.3 12.3 0 0 1-2 .2l-1.9-.2h-.8c-.5 0-.9.2-1.1.1a.9.9 0 0 1-.5-.9l.2-.4.2-.2c.1-.1.2-.2.2-.3a.6.6 0 0 0 .1-.4v-.2a18.7 18.7 0 0 0-3.5 1.7l-3.4 2-3.3 2.2-3.4 2-.9.5-1.2.5-1 .8a2.1 2.1 0 0 0-.4 1.1v.5l1.9 1.7 1.9 1.7 2.1 1.6a12 12 0 0 0 2.1 1.3l1.8.7 2 .5 1.9.7a7 7 0 0 1 1.7.9 8.6 8.6 0 0 1 1.3 1.4l1.1 1.5 1.2 1.5a6.4 6.4 0 0 0 1.5 1.3l1.7.6a11.7 11.7 0 0 1 2 .6 7.7 7.7 0 0 1 1.8 1 2.1 2.1 0 0 1 .8 1.8v.5l-5.7 1.1-1.1.4a2 2 0 0 1-1.1.3h-.6l-1.1-.6-1.8-1-1.7-1-1.1-.8-.2-.2-.3-.5-.3-.6-.3-.4-2.3-4.6-1.1-.4-1.8-.8-2.2-.9-2.1-1-1.9-.8-1.1-.6a16.4 16.4 0 0 1-2.9-1.8 17.1 17.1 0 0 1-2.6-2.1 15.6 15.6 0 0 1-2-2.7 7.6 7.6 0 0 1-1.1-3.2l-.6.2-.6.4-.8.6-1.8 1.2-2.1 1.4-2.1 1.4-1.8 1.1-1 .5-6 3.6a20.3 20.3 0 0 0-4.6 3.4 15.9 15.9 0 0 0-3.6 4.5c-.9 1.7-.8 3.9-2.4 6.6v1.6a10.6 10.6 0 0 0 1.1 4.5 8.5 8.5 0 0 0 4.8 4l2.6 1a4.2 4.2 0 0 1 2 1 5.3 5.3 0 0 1 .8 2h-13.4l-.2-.4c-.1-.2-.2-.1-.4-.2h-.5l-.6-.4a3.2 3.2 0 0 1-1.3-1.5 7.8 7.8 0 0 1-.4-2.2 8.6 8.6 0 0 1 .2-2.3c0-.8.3-1.5.3-2.1v-1.5a7.7 7.7 0 0 1 .2-1.8l.6-2.7c.3-1 .5-2 .8-3.1s.5-2.2.8-3.2.5-1.9.7-2.7l.4-1.8a11.8 11.8 0 0 1 .7-2 7 7 0 0 1 1-1.9 16.1 16.1 0 0 0 4.5-2.6 25.7 25.7 0 0 0 3.3-3.3c1-1.2 2-2.3 2.9-3.5a17.6 17.6 0 0 1 3.5-3.1l1.4-.7 2.1-.8 2.3-1a11.3 11.3 0 0 0 2.2-1.1l1.6-1.3a2.5 2.5 0 0 0 .6-1.6v-1.3a1.8 1.8 0 0 0-.6-1.3l-.8-.2-1.2-.6-1.2-.5-.8-.4a9.4 9.4 0 0 1-2-1.2l-2.7-1.9c-.9-.7-1.8-1-2.6-1.6a3 3 0 0 0-1.7-.5h-8c-6 0-11.9-.1-17.8.1s-11.8.2-17.8.2c-4.4 0-8.8-.2-13-.4a103.9 103.9 0 0 1-12.5-1.4 101.4 101.4 0 0 1-12.1-2.9 76.1 76.1 0 0 1-11.9-5.1l-1.4-.7a9.1 9.1 0 0 1-1.6-1.1 4 4 0 0 1-1.3-1.3 2.2 2.2 0 0 1-.6-1.5 6.9 6.9 0 0 1 2.2.4 11.7 11.7 0 0 1 2.4.9l2.2 1 1.5.6c1.5.6 3 1.2 4.7 1.7l5.1 1.4a31.8 31.8 0 0 0 5.2 1 27.7 27.7 0 0 0 4.9.4h26.7l2.6-.4 3.4-.5 3.7-.6 3.4-.6 2.7-.6 7-1.4c2.4-.4 4.9-1 7.4-1.6s4.9-1.3 7.3-2.1a58.6 58.6 0 0 0 6.7-2.8l3.9-1.8a25.4 25.4 0 0 1 3.8-1.6l4-1.4a25.9 25.9 0 0 1 4.2-.9h2.8l1.8-.2a2.3 2.3 0 0 0 1.1-.2l1.9-.3 3.3-.7 4.1-.9 4.1-1c1.3-.2 2.4-.9 3.4-1.1s1.5-.7 1.9-.7h6.6c2.7 0 5.4.5 8 .7s5.2.5 7.9.5a10.1 10.1 0 0 0 5.1-1.2 18.7 18.7 0 0 0 4.5-3.6 33.3 33.3 0 0 0 3.9-5 53 53 0 0 0 3.3-5.7 55.3 55.3 0 0 0 2.6-5.6l1.8-4.8c.4-1.2.8-2.4 1.1-3.5l1-3.2 1.2-2.6a7 7 0 0 1 1.8-2 7.2 7.2 0 0 1 2.7-1.6 12.7 12.7 0 0 1 3.8-.8h3.1c.8 1.7 1.8.9 3 1.3l3.6 1.5a22 22 0 0 1 3 1.9 2.8 2.8 0 0 1 1.2 2.2 2 2 0 0 1-.4 1.4 3.6 3.6 0 0 1-1.2.4z"/></svg>